# Blender 3.6.3
# www.blender.org
mtllib fusee.mtl
o Cylinder
v 0.000000 0.000000 -1.000000
v 0.000000 12.409718 -1.000000
v 0.500000 0.000000 -0.866025
v 0.500000 12.409718 -0.866025
v 0.866025 0.000000 -0.500000
v 0.866025 12.409718 -0.500000
v 1.000000 0.000000 0.000000
v 1.000000 12.409718 0.000000
v 0.866025 0.000000 0.500000
v 0.866025 12.409718 0.500000
v 0.500000 0.000000 0.866025
v 0.500000 12.409718 0.866025
v 0.000000 0.000000 1.000000
v 0.000000 12.409718 1.000000
v -0.500000 0.000000 0.866025
v -0.500000 12.409718 0.866025
v -0.866025 0.000000 0.500000
v -0.866025 12.409718 0.500000
v -1.000000 0.000000 0.000000
v -1.000000 12.409718 0.000000
v -0.866025 0.000000 -0.500000
v -0.866025 12.409718 -0.500000
v -0.500000 0.000000 -0.866025
v -0.500000 12.409718 -0.866025
v 0.000000 13.990871 -0.878553
v 0.439276 13.990871 -0.760849
v 0.760849 13.990871 -0.439276
v 0.878553 13.990871 0.000000
v 0.760849 13.990871 0.439276
v 0.439276 13.990871 0.760849
v 0.000000 13.990871 0.878553
v -0.439276 13.990871 0.760849
v -0.760849 13.990871 0.439276
v -0.878553 13.990871 0.000000
v -0.760849 13.990871 -0.439276
v -0.439276 13.990871 -0.760849
v -0.000000 17.041899 -0.340873
v 0.170436 17.041899 -0.295204
v 0.295204 17.041899 -0.170436
v 0.340873 17.041899 -0.000000
v 0.295204 17.041899 0.170436
v 0.170436 17.041899 0.295204
v -0.000000 17.041899 0.340873
v -0.170436 17.041899 0.295204
v -0.295204 17.041899 0.170436
v -0.340873 17.041899 -0.000000
v -0.295204 17.041899 -0.170436
v -0.170436 17.041899 -0.295204
v 0.000001 17.962629 -0.000000
v -0.624847 15.228648 0.360755
v 0.360755 15.228648 -0.624847
v 0.000000 15.228648 -0.721511
v -0.360755 15.228648 -0.624847
v 0.624847 15.228648 0.360755
v -0.360755 15.228648 0.624847
v 0.000000 15.228648 0.721511
v -0.624847 15.228648 -0.360755
v -0.721511 15.228648 -0.000000
v 0.721511 15.228648 -0.000000
v 0.624847 15.228648 -0.360755
v 0.360755 15.228648 0.624847
v 0.456690 16.275566 -0.263670
v -0.527340 16.275566 0.000000
v 0.000000 16.275566 0.527340
v 0.000000 16.275566 -0.527340
v 0.263670 16.275566 0.456690
v -0.456690 16.275566 0.263670
v 0.263670 16.275566 -0.456690
v -0.263670 16.275566 -0.456690
v 0.456690 16.275566 0.263670
v -0.263670 16.275566 0.456690
v -0.456690 16.275566 -0.263670
v 0.527340 16.275566 0.000000
v 0.000000 3.847481 -1.000000
v 0.500000 3.847481 -0.866025
v 0.866025 3.847481 -0.500000
v 1.000000 5.068137 0.000000
v 0.866025 3.847481 0.500000
v 0.500000 3.847481 0.866025
v 0.000000 3.847481 1.000000
v -0.500000 5.063039 0.866025
v -0.866025 3.847481 0.500000
v -1.000000 3.847481 0.000000
v -0.866025 3.847481 -0.500000
v -0.500000 5.027155 -0.866025
v 3.179768 -1.555878 -0.077257
v 3.313742 -1.555878 0.000000
v 3.179768 -1.555878 0.077257
v 3.179768 3.847481 -0.077257
v 3.313742 3.847481 0.000000
v 3.179768 3.847481 0.077257
v -1.416744 -1.555878 2.687327
v -1.673980 -1.555878 2.899419
v -1.623065 -1.555878 2.568208
v -1.416744 3.847481 2.687327
v -1.673980 3.847481 2.899419
v -1.623065 3.847481 2.568208
v -1.326718 -1.555878 -2.532289
v -1.514175 -1.555878 -2.424061
v -1.581310 -1.555878 -2.738910
v -1.326718 3.847481 -2.532289
v -1.514175 3.847481 -2.424061
v -1.581310 3.847481 -2.738910
v 1.633839 3.847481 -0.187502
v 1.633839 0.000000 -0.187502
v 1.417260 4.650756 0.000000
v 1.417260 0.000000 0.000000
v 1.633839 0.000000 0.220681
v 1.633839 3.847481 0.220681
v -1.029248 3.847481 -1.309062
v -1.029248 0.000000 -1.309062
v -0.641870 3.847481 -1.532715
v -0.685811 4.593196 -1.187860
v -0.685811 0.000000 -1.187860
v -0.641870 0.000000 -1.532715
v -0.648559 0.000000 1.604955
v -0.713169 0.000000 1.235246
v -1.045598 3.847481 1.375724
v -0.713169 4.641703 1.235246
v -1.045598 0.000000 1.375724
v -0.648559 3.847481 1.604955
v 0.000000 0.000000 -0.907681
v 0.453841 0.000000 -0.786075
v 0.786075 0.000000 -0.453841
v 0.907681 0.000000 0.000000
v 0.786075 0.000000 0.453841
v 0.453841 0.000000 0.786075
v 0.000000 0.000000 0.907681
v -0.453841 0.000000 0.786075
v -0.786075 0.000000 0.453841
v -0.907681 0.000000 0.000000
v -0.786075 0.000000 -0.453841
v -0.453841 0.000000 -0.786075
v -0.000000 0.224429 -0.907681
v 0.453841 0.224429 -0.786075
v 0.786075 0.224429 -0.453841
v 0.907681 0.224429 0.000000
v 0.786075 0.224429 0.453841
v 0.453841 0.224429 0.786075
v -0.000000 0.224429 0.907681
v -0.453841 0.224429 0.786075
v -0.786075 0.224429 0.453841
v -0.907681 0.224429 0.000000
v -0.786075 0.224429 -0.453841
v -0.453841 0.224429 -0.786075
v -0.000000 0.224429 -0.745491
v 0.372745 0.224429 -0.645614
v 0.645614 0.224429 -0.372745
v 0.745491 0.224429 -0.000000
v 0.645614 0.224429 0.372745
v 0.372745 0.224429 0.645614
v -0.000000 0.224429 0.745491
v -0.372745 0.224429 0.645614
v -0.645614 0.224429 0.372745
v -0.745491 0.224429 -0.000000
v -0.645614 0.224429 -0.372745
v -0.372745 0.224429 -0.645614
v -0.000000 0.026344 -0.745491
v 0.372745 0.026344 -0.645614
v 0.645614 0.026344 -0.372745
v 0.745491 0.026344 -0.000000
v 0.645614 0.026344 0.372745
v 0.372745 0.026344 0.645614
v -0.000000 0.026344 0.745491
v -0.372745 0.026344 0.645614
v -0.645614 0.026344 0.372745
v -0.745491 0.026344 -0.000000
v -0.645614 0.026344 -0.372745
v -0.372745 0.026344 -0.645614
v -0.000000 0.026344 -0.621341
v 0.310670 0.026344 -0.538097
v 0.538097 0.026344 -0.310670
v 0.621341 0.026344 -0.000000
v 0.538097 0.026344 0.310670
v 0.310670 0.026344 0.538097
v -0.000000 0.026344 0.621341
v -0.310670 0.026344 0.538097
v -0.538097 0.026344 0.310670
v -0.621341 0.026344 -0.000000
v -0.538097 0.026344 -0.310670
v -0.310670 0.026344 -0.538097
v -0.000000 0.396337 -0.621341
v 0.310670 0.396337 -0.538097
v 0.538097 0.396337 -0.310670
v 0.621341 0.396337 -0.000000
v 0.538097 0.396337 0.310670
v 0.310670 0.396337 0.538097
v -0.000000 0.396337 0.621341
v -0.310670 0.396337 0.538097
v -0.538097 0.396337 0.310670
v -0.621341 0.396337 -0.000000
v -0.538097 0.396337 -0.310670
v -0.310670 0.396337 -0.538097
vn 0.2588 -0.0000 -0.9659
vn 0.7071 -0.0000 -0.7071
vn 0.9659 -0.0000 -0.2588
vn 0.9659 -0.0000 0.2588
vn 0.7071 -0.0000 0.7071
vn 0.2588 -0.0000 0.9659
vn -0.2588 -0.0000 0.9659
vn -0.7071 -0.0000 0.7071
vn -0.9659 -0.0000 0.2588
vn -0.9659 -0.0000 -0.2588
vn 0.7052 0.0740 0.7052
vn -0.7071 -0.0000 -0.7071
vn -0.2588 -0.0000 -0.9659
vn -0.0000 -1.0000 -0.0000
vn 0.9403 0.2288 -0.2520
vn 0.9633 0.0740 0.2581
vn -0.2581 0.0740 -0.9633
vn 0.2581 0.0740 -0.9633
vn 0.9633 0.0740 -0.2581
vn -0.7052 0.0740 -0.7052
vn 0.7052 0.0740 -0.7052
vn -0.9633 0.0740 -0.2581
vn -0.9633 0.0740 0.2581
vn -0.7052 0.0740 0.7052
vn -0.2581 0.0740 0.9633
vn 0.2581 0.0740 0.9633
vn 0.2437 0.3367 0.9095
vn -0.9403 0.2288 -0.2520
vn -0.2520 0.2288 0.9403
vn 0.9403 0.2288 0.2520
vn -0.6883 0.2288 -0.6884
vn 0.2520 0.2288 -0.9403
vn -0.6883 0.2288 0.6884
vn 0.6883 0.2288 0.6884
vn -0.2520 0.2288 -0.9403
vn 0.6883 0.2288 -0.6884
vn -0.9403 0.2288 0.2520
vn 0.2520 0.2288 0.9403
vn -0.2569 0.1216 0.9588
vn 0.9095 0.3367 -0.2437
vn -0.9095 0.3367 -0.2437
vn -0.2437 0.3367 0.9095
vn 0.9095 0.3367 0.2437
vn -0.6658 0.3367 -0.6658
vn 0.2437 0.3367 -0.9095
vn -0.6658 0.3367 0.6658
vn 0.6658 0.3367 0.6658
vn -0.2437 0.3367 -0.9095
vn 0.6658 0.3367 -0.6658
vn -0.9095 0.3367 0.2437
vn 0.9588 0.1216 0.2569
vn -0.7019 0.1216 -0.7019
vn 0.2569 0.1216 -0.9588
vn -0.7019 0.1216 0.7019
vn 0.7019 0.1216 0.7019
vn -0.2569 0.1216 -0.9588
vn 0.7019 0.1216 -0.7019
vn -0.9588 0.1216 0.2569
vn 0.2569 0.1216 0.9588
vn -0.9588 0.1216 -0.2569
vn 0.9588 0.1216 -0.2569
vn 0.2548 0.1763 0.9508
vn -0.9508 0.1763 0.2548
vn 0.6960 0.1763 -0.6960
vn -0.2548 0.1763 -0.9508
vn 0.6960 0.1763 0.6960
vn -0.6960 0.1763 0.6960
vn 0.2548 0.1763 -0.9508
vn -0.6960 0.1763 -0.6960
vn 0.9508 0.1763 0.2548
vn -0.2548 0.1763 0.9508
vn -0.9508 0.1763 -0.2548
vn 0.9508 0.1763 -0.2548
vn 0.7248 0.3948 -0.5645
vn -0.9170 -0.0000 0.3988
vn -0.8526 0.3866 -0.3516
vn 0.3053 -0.7199 -0.6234
vn 0.1051 0.3210 -0.9412
vn 0.0711 -0.0000 -0.9975
vn 0.4995 -0.0000 0.8663
vn 0.4995 -0.0000 -0.8663
vn -0.6529 -0.7295 -0.2037
vn 0.0924 -0.0000 0.9957
vn 0.1217 0.3561 0.9265
vn -0.6552 -0.7332 0.1817
vn -0.9884 -0.0000 -0.1519
vn 0.6362 -0.0000 0.7716
vn -0.9000 -0.0000 -0.4358
vn 0.3893 -0.7199 -0.5746
vn 0.7172 0.4034 0.5682
vn 0.8155 -0.0000 0.5788
vn 0.6302 -0.0000 -0.7765
vn -0.9780 -0.0000 0.2085
vn 0.4148 -0.6911 0.5919
vn -0.8541 0.4021 0.3298
vn 0.3035 -0.6915 0.6555
vn 0.8249 -0.0000 -0.5652
vn 0.3249 0.3290 0.8867
vn 0.3419 -0.0000 0.9397
vn 0.3770 -0.0000 -0.9262
vn 0.3441 0.3146 -0.8847
vn 0.6386 -0.0000 -0.7695
vn -0.9219 0.3584 0.1470
vn -0.9803 -0.0000 0.1978
vn 0.5794 0.3471 -0.7374
vn 0.6821 -0.0000 0.7313
vn 0.6212 0.3502 0.7010
vn -0.9796 -0.0000 -0.2009
vn -0.9235 0.3407 -0.1760
vt 1.000000 0.655019
vt 1.000000 1.000000
vt 0.916667 1.000000
vt 0.916667 0.655019
vt 0.833333 1.000000
vt 0.833333 0.655019
vt 0.750000 1.000000
vt 0.750000 0.655019
vt 0.666667 1.000000
vt 0.666667 0.655019
vt 0.583333 1.000000
vt 0.583333 0.655019
vt 0.500000 1.000000
vt 0.500000 0.655019
vt 0.416667 1.000000
vt 0.416667 0.655019
vt 0.333333 1.000000
vt 0.333333 0.655019
vt 0.250000 1.000000
vt 0.250000 0.655019
vt 0.166667 1.000000
vt 0.166667 0.655019
vt 0.083333 1.000000
vt 0.083333 0.655019
vt 0.000000 1.000000
vt 0.000000 0.655019
vt 0.957846 0.370000
vt 0.990000 0.250000
vt 0.083333 0.655019
vt 0.166667 0.500000
vt 0.166667 0.655019
vt 0.250000 0.500000
vt 0.333333 0.500000
vt 0.416667 0.655019
vt 0.333333 0.655019
vt 0.630000 0.042154
vt 0.750000 0.010000
vt 0.583333 0.500000
vt 0.500000 0.500000
vt 0.666667 0.500000
vt 0.750000 0.655019
vt 0.833333 0.500000
vt 0.916667 0.500000
vt 1.000000 0.500000
vt 0.750000 0.500000
vt 0.957846 0.370000
vt 0.957846 0.130000
vt 0.957846 0.130000
vt 0.416667 0.500000
vt 0.542154 0.130000
vt 0.083333 0.500000
vt 0.000000 0.500000
vt 0.630000 0.457846
vt 0.542154 0.370000
vt 0.750000 0.490000
vt 0.750000 0.490000
vt 0.870000 0.457846
vt 0.870000 0.042154
vt 0.510000 0.250000
s 0
f 74/1/1 2/2/1 4/3/1 75/4/1
f 75/4/2 4/3/2 6/5/2 76/6/2
f 76/6/3 6/5/3 8/7/3 77/8/3
f 77/8/4 8/7/4 10/9/4 78/10/4
f 78/10/5 10/9/5 12/11/5 79/12/5
f 79/12/6 12/11/6 14/13/6 80/14/6
f 80/14/7 14/13/7 16/15/7 81/16/7
f 81/16/8 16/15/8 18/17/8 82/18/8
f 82/18/9 18/17/9 20/19/9 83/20/9
f 83/20/10 20/19/10 22/21/10 84/22/10
f 12/11/11 10/9/11 29/9/11 30/11/11
f 84/22/12 22/21/12 24/23/12 85/24/12
f 85/24/13 24/23/13 2/25/13 74/26/13
f 5/27/14 7/28/14 125/28/14 124/27/14
f 73/7/15 62/5/15 39/5/15 40/7/15
f 10/9/16 8/7/16 28/7/16 29/9/16
f 2/25/17 24/23/17 36/23/17 25/25/17
f 4/3/18 2/2/18 25/2/18 26/3/18
f 8/7/19 6/5/19 27/5/19 28/7/19
f 24/23/20 22/21/20 35/21/20 36/23/20
f 6/5/21 4/3/21 26/3/21 27/5/21
f 22/21/22 20/19/22 34/19/22 35/21/22
f 20/19/23 18/17/23 33/17/23 34/19/23
f 18/17/24 16/15/24 32/15/24 33/17/24
f 16/15/25 14/13/25 31/13/25 32/15/25
f 14/13/26 12/11/26 30/11/26 31/13/26
f 43/13/27 42/11/27 49/13/27
f 72/21/28 63/19/28 46/19/28 47/21/28
f 71/15/29 64/13/29 43/13/29 44/15/29
f 70/9/30 73/7/30 40/7/30 41/9/30
f 69/23/31 72/21/31 47/21/31 48/23/31
f 68/3/32 65/2/32 37/2/32 38/3/32
f 67/17/33 71/15/33 44/15/33 45/17/33
f 66/11/34 70/9/34 41/9/34 42/11/34
f 65/25/35 69/23/35 48/23/35 37/25/35
f 62/5/36 68/3/36 38/3/36 39/5/36
f 63/19/37 67/17/37 45/17/37 46/19/37
f 64/13/38 66/11/38 42/11/38 43/13/38
f 32/15/39 31/13/39 56/13/39 55/15/39
f 40/7/40 39/5/40 49/7/40
f 47/21/41 46/19/41 49/21/41
f 44/15/42 43/13/42 49/15/42
f 41/9/43 40/7/43 49/9/43
f 48/23/44 47/21/44 49/23/44
f 38/3/45 37/2/45 49/3/45
f 45/17/46 44/15/46 49/17/46
f 42/11/47 41/9/47 49/11/47
f 37/25/48 48/23/48 49/25/48
f 39/5/49 38/3/49 49/5/49
f 46/19/50 45/17/50 49/19/50
f 29/9/51 28/7/51 59/7/51 54/9/51
f 36/23/52 35/21/52 57/21/52 53/23/52
f 26/3/53 25/2/53 52/2/53 51/3/53
f 33/17/54 32/15/54 55/15/54 50/17/54
f 30/11/55 29/9/55 54/9/55 61/11/55
f 25/25/56 36/23/56 53/23/56 52/25/56
f 27/5/57 26/3/57 51/3/57 60/5/57
f 34/19/58 33/17/58 50/17/58 58/19/58
f 31/13/59 30/11/59 61/11/59 56/13/59
f 35/21/60 34/19/60 58/19/60 57/21/60
f 28/7/61 27/5/61 60/5/61 59/7/61
f 56/13/62 61/11/62 66/11/62 64/13/62
f 58/19/63 50/17/63 67/17/63 63/19/63
f 60/5/64 51/3/64 68/3/64 62/5/64
f 52/25/65 53/23/65 69/23/65 65/25/65
f 61/11/66 54/9/66 70/9/66 66/11/66
f 50/17/67 55/15/67 71/15/67 67/17/67
f 51/3/68 52/2/68 65/2/68 68/3/68
f 53/23/69 57/21/69 72/21/69 69/23/69
f 54/9/70 59/7/70 73/7/70 70/9/70
f 55/15/71 56/13/71 64/13/71 71/15/71
f 57/21/72 58/19/72 63/19/72 72/21/72
f 59/7/73 60/5/73 62/5/73 73/7/73
f 113/29/74 112/26/74 101/26/74 103/24/74
f 111/30/75 110/31/75 102/22/75 99/30/75
f 19/32/10 83/20/10 84/22/10 21/30/10
f 17/33/9 82/18/9 83/20/9 19/32/9
f 119/34/76 118/35/76 97/18/76 96/16/76
f 117/36/77 116/37/77 92/37/77 93/36/77
f 11/38/6 79/12/6 80/14/6 13/39/6
f 9/40/5 78/10/5 79/12/5 11/38/5
f 104/6/78 106/41/78 90/8/78 89/6/78
f 105/42/79 104/6/79 89/6/79 86/42/79
f 3/43/2 75/4/2 76/6/2 5/42/2
f 1/44/1 74/1/1 75/4/1 3/43/1
f 87/45/80 90/8/80 91/10/80 88/40/80
f 86/42/81 89/6/81 90/8/81 87/45/81
f 107/28/82 105/46/82 86/27/82 87/28/82
f 109/10/83 108/40/83 88/40/83 91/10/83
f 106/41/84 109/10/84 91/10/84 90/8/84
f 108/47/85 107/28/85 87/28/85 88/48/85
f 93/49/86 96/16/86 97/18/86 94/33/86
f 92/39/87 95/14/87 96/16/87 93/49/87
f 118/35/88 120/33/88 94/33/88 97/18/88
f 120/50/89 117/36/89 93/36/89 94/50/89
f 121/14/90 119/34/90 96/16/90 95/14/90
f 116/39/91 121/14/91 95/14/91 92/39/91
f 100/51/92 103/24/92 101/26/92 98/52/92
f 99/30/93 102/22/93 103/24/93 100/51/93
f 114/53/94 111/54/94 99/54/94 100/53/94
f 110/31/95 113/29/95 103/24/95 102/22/95
f 115/55/96 114/53/96 100/53/96 98/56/96
f 112/1/97 115/44/97 98/44/97 101/1/97
f 9/48/14 7/28/14 107/28/14 108/47/14
f 77/8/98 78/10/98 109/10/98 106/41/98
f 78/10/99 9/40/99 108/40/99 109/10/99
f 7/28/14 5/27/14 105/46/14 107/28/14
f 5/42/100 76/6/100 104/6/100 105/42/100
f 76/6/101 77/8/101 106/41/101 104/6/101
f 74/1/102 1/44/102 115/44/102 112/1/102
f 1/56/14 23/53/14 114/53/14 115/55/14
f 84/22/103 85/24/103 113/29/103 110/31/103
f 23/53/14 21/54/14 111/54/14 114/53/14
f 21/30/104 84/22/104 110/31/104 111/30/104
f 85/24/105 74/26/105 112/26/105 113/29/105
f 13/39/106 80/14/106 121/14/106 116/39/106
f 80/14/107 81/16/107 119/34/107 121/14/107
f 17/50/14 15/36/14 117/36/14 120/50/14
f 82/18/108 17/33/108 120/33/108 118/35/108
f 15/36/14 13/37/14 116/37/14 117/36/14
f 81/16/109 82/18/109 118/35/109 119/34/109
f 127/38/13 128/39/13 140/39/13 139/38/13
f 21/54/14 23/53/14 133/53/14 132/54/14
f 3/43/14 5/42/14 124/42/14 123/43/14
f 19/32/14 21/30/14 132/30/14 131/32/14
f 17/33/14 19/32/14 131/32/14 130/33/14
f 15/36/14 17/50/14 130/50/14 129/36/14
f 13/37/14 15/36/14 129/36/14 128/37/14
f 11/38/14 13/39/14 128/39/14 127/38/14
f 9/40/14 11/38/14 127/38/14 126/40/14
f 7/28/14 9/48/14 126/48/14 125/28/14
f 23/53/14 1/56/14 122/56/14 133/53/14
f 1/44/14 3/43/14 123/43/14 122/44/14
f 139/38/14 140/39/14 152/39/14 151/38/14
f 124/27/9 125/28/9 137/28/9 136/27/9
f 131/32/4 132/30/4 144/30/4 143/32/4
f 128/37/1 129/36/1 141/36/1 140/37/1
f 125/28/10 126/48/10 138/48/10 137/28/10
f 132/54/5 133/53/5 145/53/5 144/54/5
f 122/44/7 123/43/7 135/43/7 134/44/7
f 129/36/2 130/50/2 142/50/2 141/36/2
f 126/40/12 127/38/12 139/38/12 138/40/12
f 133/53/6 122/56/6 134/56/6 145/53/6
f 123/43/8 124/42/8 136/42/8 135/43/8
f 130/33/3 131/32/3 143/32/3 142/33/3
f 154/33/9 155/32/9 167/32/9 166/33/9
f 136/27/14 137/28/14 149/28/14 148/27/14
f 143/32/14 144/30/14 156/30/14 155/32/14
f 140/37/14 141/36/14 153/36/14 152/37/14
f 137/28/14 138/48/14 150/48/14 149/28/14
f 144/54/14 145/53/14 157/53/14 156/54/14
f 134/44/14 135/43/14 147/43/14 146/44/14
f 141/36/14 142/50/14 154/50/14 153/36/14
f 138/40/14 139/38/14 151/38/14 150/40/14
f 145/53/14 134/56/14 146/56/14 157/53/14
f 135/43/14 136/42/14 148/42/14 147/43/14
f 142/33/14 143/32/14 155/32/14 154/33/14
f 159/43/14 160/42/14 172/42/14 171/43/14
f 151/38/6 152/39/6 164/39/6 163/38/6
f 148/27/3 149/28/3 161/28/3 160/27/3
f 155/32/10 156/30/10 168/30/10 167/32/10
f 152/37/7 153/36/7 165/36/7 164/37/7
f 149/28/4 150/48/4 162/48/4 161/28/4
f 156/54/12 157/53/12 169/53/12 168/54/12
f 146/44/1 147/43/1 159/43/1 158/44/1
f 153/36/8 154/50/8 166/50/8 165/36/8
f 150/40/5 151/38/5 163/38/5 162/40/5
f 157/53/13 146/56/13 158/56/13 169/53/13
f 147/43/2 148/42/2 160/42/2 159/43/2
f 181/53/6 170/56/6 182/56/6 193/53/6
f 166/33/14 167/32/14 179/32/14 178/33/14
f 163/38/14 164/39/14 176/39/14 175/38/14
f 160/27/14 161/28/14 173/28/14 172/27/14
f 167/32/14 168/30/14 180/30/14 179/32/14
f 164/37/14 165/36/14 177/36/14 176/37/14
f 161/28/14 162/48/14 174/48/14 173/28/14
f 168/54/14 169/53/14 181/53/14 180/54/14
f 158/44/14 159/43/14 171/43/14 170/44/14
f 165/36/14 166/50/14 178/50/14 177/36/14
f 162/40/14 163/38/14 175/38/14 174/40/14
f 169/53/14 158/56/14 170/56/14 181/53/14
f 182/56/14 183/57/14 184/27/14 185/28/14 186/48/14 187/58/14 188/37/14 189/36/14 190/50/14 191/59/14 192/54/14 193/53/14
f 171/43/8 172/42/8 184/42/8 183/43/8
f 178/33/3 179/32/3 191/32/3 190/33/3
f 175/38/13 176/39/13 188/39/13 187/38/13
f 172/27/9 173/28/9 185/28/9 184/27/9
f 179/32/4 180/30/4 192/30/4 191/32/4
f 176/37/1 177/36/1 189/36/1 188/37/1
f 173/28/10 174/48/10 186/48/10 185/28/10
f 180/54/5 181/53/5 193/53/5 192/54/5
f 170/44/7 171/43/7 183/43/7 182/44/7
f 177/36/2 178/50/2 190/50/2 189/36/2
f 174/40/12 175/38/12 187/38/12 186/40/12
